I Satanici Riti Di Dracula (1973)

Titolo originale The Satanic Rites of Dracula
Paese di produzione Gran Bretagna
Anno 1973
Durata 87 min
Genere horror
Regia Alan Gibson
Soggetto Don Houghton
Sceneggiatura Don Houghton
Casa di produzione Hammer Film Productions
Fotografia Brian Probyn
Montaggio Chris Barnes
Musiche John Cacavas


Cast

Christopher Lee: Conte Dracula
Peter Cushing: Prof. Lorrimer Van Helsing
Michael Coles: Ispettore Murray
William Franklyn: Torrence
Freddie Jones: Prof. Julian Keeley
Joanna Lumley: Jessica Van Helsing
Richard Vernon: Colonnello Mathews
Barbara Yu Ling: Chin Yang
Patrick Barr: Lord Carradine
Richard Mathews: John Porter
Lockwood West: General Sir Arthur Freeborne
Valerie Van Ost: Jane
Maurice O'Connell: Hanson
Peter Adair: Doctor
Maggie Fitzgerald:
Pauline Peart:
Finnuala O'Shannon:
Mia Martin:
John Harvey:
Marc Zuber: Guardia #1
Paul Weston: Guardia #2
Ian Dewar: Guardia #3
Graham Rees: Guardia #4

Trama

La storia narra sulle indagini condotte dal professor Lorrimer Van Helsing e da Scotland Yard sui partecipanti ad una setta satanica, la loro base è nell'istituto "Psychical Examination and

Research Group" (PERGE). Uno degli indagati muore e le ricerche portano al Conte Dracula, che vuole diffondere un pericoloso virus.

Dati File

General
Complete name : I Satanici Riti Di Dracula (1973).avi
Format : AVI
Format/Info : Audio Video Interleave
File size : 704 MiB
Duration : 1h 26mn
Overall bit rate : 1 133 Kbps
Writing application : Nandub v1.0rc2
Writing library : VirtualDub build 23604/release

Video
ID : 0
Format : MPEG-4 Visual
Format settings, BVOP : Yes
Format settings, QPel : No
Format settings, GMC : No warppoints
Format settings, Matrix : Default (H.263)
Muxing mode : Packed bitstream
Codec ID : DX50
Codec ID/Hint : DivX 5
Duration : 1h 26mn
Bit rate : 996 Kbps
Width : 640 pixels
Height : 352 pixels
Display aspect ratio : 16:9
Frame rate : 23.976 fps
Color space : YUV
Chroma subsampling : 4:2:0
Bit depth : 8 bits
Scan type : Progressive
Bits/(Pixel*Frame) : 0.184
Stream size : 619 MiB (88%)
Writing library : DivX 5.0.5 (UTC 2003-04-24)

Audio
ID : 1
Format : MPEG Audio
Format version : Version 1
Format profile : Layer 3
Mode : Joint stereo
Mode extension : MS Stereo
Codec ID : 55
Codec ID/Hint : MP3
Duration : 1h 26mn
Bit rate mode : Constant
Bit rate : 128 Kbps
Channel(s) : 2 channels
Sampling rate : 44.1 KHz
Stream size : 79.3 MiB (11%)
Alignment : Split accross interleaves
Interleave, duration : 42 ms (1.00 video frame)
Interleave, preload duration : 500 ms